mtllib concrete_fence.mtl

o concrete_fence_Cube.001
v 1.249999 0.000000 -0.075000
v 1.249999 0.000000 0.075000
v 1.250000 3.000000 -0.075000
v 1.249998 3.000000 0.075000
v -1.249999 0.000000 -0.075000
v -1.249999 0.000000 0.075000
v -1.250000 3.000000 -0.075000
v -1.249998 3.000000 0.075000
vt 0.022663 0.745919
vt 0.022662 0.205253
vt 0.049696 0.205253
vt 0.049696 0.745919
vt 0.049696 0.178220
vt 0.500250 0.178220
vt 0.500250 0.205253
vt 0.500250 0.745919
vt 0.500251 0.772952
vt 0.049696 0.772952
vt 0.527284 0.205253
vt 0.527284 0.745919
vt 0.977838 0.205253
vt 0.977838 0.745919
vn -0.577300 0.577300 -0.577300
vn -0.577300 -0.577300 -0.577300
vn -0.577300 -0.577300 0.577300
vn -0.577300 0.577300 0.577300
vn 0.577300 -0.577300 -0.577300
vn 0.577300 -0.577300 0.577300
vn 0.577300 0.577300 0.577300
vn 0.577300 0.577300 -0.577300

usemtl concrete_fence
s 1
f 7/1/1 5/2/2 6/3/3 8/4/4
f 5/5/2 1/6/5 2/7/6 6/3/3
f 6/3/3 2/7/6 4/8/7 8/4/4
f 3/9/8 7/10/1 8/4/4 4/8/7
f 4/8/7 2/7/6 1/11/5 3/12/8
f 3/12/8 1/11/5 5/13/2 7/14/1
